<?xml version="1.0" encoding="UTF-8"?>
<svg width="60px" height="60px" viewBox="0 0 60 60" version="1.1" xmlns="http://www.w3.org/2000/svg" xmlns:xlink="http://www.w3.org/1999/xlink">
    <!-- Generator: Sketch 52.6 (67491) - http://www.bohemiancoding.com/sketch -->
    <title>icon-white</title>
    <desc>Created with Sketch.</desc>
    <g id="icon-white" stroke="none" stroke-width="1" fill="none" fill-rule="evenodd">
        <g id="noun_Origami_2846931" fill="#FFFFFF" fill-rule="nonzero">
            <path d="M16.1194343,32.5146775 L2.08872651,57.4070668 L24.7163963,35.9691483 L24.7358025,35.9505981 L28.0736749,32.7888091 C24.0876343,32.698119 20.1035343,32.6074288 16.1174936,32.5167386 L16.1194343,32.5146775 Z M36.2495216,23.8496444 L52.2441403,17.8950106 L35.8439313,22.0275965 L36.2495216,23.8475833 L36.2495216,23.8496444 Z M59.9775249,15.4669875 C60.0454467,15.6731015 59.9542374,15.8957047 59.7737594,15.988456 L41.3611239,26.3972136 L40.3578215,32.2343624 L41.5474237,42.7935833 C41.5474237,42.9646579 41.5260769,43.0512258 41.417402,43.1604662 C41.2990239,43.2676455 41.1515365,43.3006238 41.0040492,43.2408507 L25.073471,36.7668096 L0.666249503,59.8907406 C0.347987252,60.1916671 -0.131346748,59.8186007 0.0336062482,59.4063727 L7.71265336,35.9959432 C7.74176271,35.8805193 7.8155064,35.7795234 7.92418132,35.7259338 L15.5450097,31.7850339 C15.7022002,31.7149551 15.8555095,31.6634266 16.028225,31.66961 L16.3076747,31.6757935 L6.9888008,18.1959371 C6.96745394,18.16502 6.95192895,18.1341029 6.93834459,18.1011246 L0.439196555,0.579372425 C0.272302936,0.125921598 0.844786863,-0.216227663 1.12617727,0.16302212 L18.6422448,22.079125 L19.3660974,18.3402169 C19.3952067,18.1979982 19.4902973,18.0763909 19.6222597,18.0269236 C19.7561627,17.9774562 19.9036501,18.004251 20.0103843,18.0990635 L27.2508506,23.9485791 L26.5561073,11.8125861 C26.5444636,11.5920441 26.691951,11.4003581 26.8957165,11.369441 L29.4612207,10.9489684 L31.4581223,10.2255082 C31.619194,10.1574906 31.8093751,10.2069579 31.9219313,10.3594823 L38.0193702,18.694733 C38.2813544,19.0554325 37.8932297,19.548045 37.505105,19.3213196 L34.8969071,17.8146261 L35.6556908,21.2072628 L59.5059534,15.1969782 C59.7019564,15.149572 59.9076625,15.2649958 59.9736437,15.4711098 L59.9775249,15.4669875 Z M54.7960602,17.8434821 L36.4358215,24.6782227 L36.6842213,25.7871161 L40.9031367,25.696426 L54.7960602,17.841421 L54.7960602,17.8434821 Z M40.1327092,28.8417258 L38.2367201,32.7475863 L38.8150259,35.3301949 L40.3849903,39.5926327 L39.5602253,32.2735241 C39.5544034,32.2199345 39.5582847,32.1663448 39.571869,32.1148163 L40.1346498,28.8417258 L40.1327092,28.8417258 Z M37.9553297,31.4799852 L40.3461778,26.5538603 L36.8724618,26.6280613 L37.9553297,31.4799852 Z M38.0659452,35.6269991 C38.0601233,35.6146322 38.0562421,35.6002043 38.0523608,35.5857763 L29.3020896,11.8290752 L27.3769911,12.1423685 L28.3919372,29.8434399 L32.7020619,32.4384153 C32.7466962,32.4652101 32.7855087,32.5002495 32.8146181,32.5414723 L40.0007468,40.8808453 L38.0640046,35.6249379 L38.0659452,35.6269991 Z M36.7249744,29.6599984 L33.9557047,17.2643017 L31.6735315,15.9431109 L36.7249744,29.6599984 Z M34.4660886,16.5944312 C34.4854949,16.6026757 34.5049011,16.6150426 34.5243074,16.6274094 L34.7474791,16.7572613 L30.5246824,12.8225448 L31.2233068,14.7187937 L34.4680293,16.5944312 L34.4660886,16.5944312 Z M31.4658848,11.1138596 L30.3383825,11.5240265 L34.8231634,15.7019575 L31.4658848,11.1138596 Z M27.3187724,25.0554114 L21.7918767,20.5909819 L27.5303003,28.7159962 L27.320713,25.0554114 L27.3187724,25.0554114 Z M19.8648376,19.9788233 C19.1099351,23.8867449 18.3530919,27.7926055 17.5981894,31.7005271 L23.8799876,31.844807 L19.8648376,19.9788233 Z M16.9015055,31.0924908 L18.4423606,23.1261842 L2.06932028,2.64257369 L7.66801902,17.7342417 L16.9034462,31.0924908 L16.9015055,31.0924908 Z M27.6797283,30.3381135 L21.0311523,20.9228254 L24.7319213,31.8612961 L29.0769772,31.9602308 L29.0789179,31.9602308 L29.0808585,31.9602308 L29.0847397,31.9602308 L29.0905616,31.9602308 L29.1060866,31.9602308 L29.1119085,31.9602308 L29.1157897,31.9602308 L29.1216116,31.9602308 L29.1274335,31.9602308 L29.1313147,31.9602308 L29.1332553,31.9602308 L29.1390772,31.9602308 L29.1429584,31.9602308 L29.1448991,31.9602308 L29.1507209,31.9602308 L30.5964854,32.13955 L27.8116907,30.4638431 C27.7573533,30.4308648 27.7127189,30.3875809 27.6797283,30.3339912 L27.6797283,30.3381135 Z M25.748808,36.1278561 L39.721297,41.8062972 L32.3139372,33.2113429 L29.2302865,32.8300319 L25.748808,36.1278561 Z M8.42486217,36.4081712 L2.06155778,55.807622 L14.8754946,33.0732465 L8.42486217,36.4081712 Z" id="Shape"></path>
        </g>
    </g>
</svg>